<svg width="498" height="172" viewBox="0 0 498 172" fill="none" xmlns="http://www.w3.org/2000/svg">
<path d="M42.134 131.579C54.5624 154.628 80.94 164.523 80.94 164.523C80.94 164.523 87.1671 137.047 74.7387 113.998C62.3103 90.9494 35.9327 81.0549 35.9327 81.0549C35.9327 81.0549 29.7056 108.53 42.134 131.579Z" fill="#3F3D56"/>
<path d="M50.6765 123.996C73.115 137.496 81.7567 164.31 81.7567 164.31C81.7567 164.31 54.0186 169.237 31.5802 155.737C9.14176 142.238 0.5 115.424 0.5 115.424C0.5 115.424 28.2381 110.497 50.6765 123.996Z" fill="#F38D04"/>
<path d="M497.5 171.827C473.183 168.02 449.802 164.782 427.357 162.113L436 144.827C433 143.827 420 153.827 420 153.827L431 103.827C416 105.827 409 156.827 409 156.827L392 139.827L400.368 159.074C331.687 151.858 272.422 149.605 222.603 150.122L230 135.327C227 134.327 214 144.327 214 144.327L225 94.3271C210 96.3271 203 147.327 203 147.327L186 130.327L194.863 150.713C160.738 151.705 126.685 154.447 92.8408 158.929C100.222 135.933 126 113.827 126 113.827C106.179 119.994 95.8679 130.04 90.5307 139.352C89.4511 92.1079 96.719 45.0444 112 0.327148C112 0.327148 72 90.3271 78 150.327L78.7613 160.985C43.9619 166.414 26.5 171.827 26.5 171.827H497.5Z" fill="#3F3D56"/>
</svg>
